<svg xmlns="http://www.w3.org/2000/svg" xmlns:xlink="http://www.w3.org/1999/xlink" width="310" zoomAndPan="magnify" viewBox="0 0 232.5 30.750001" height="41" preserveAspectRatio="xMidYMid meet" version="1.0"><defs><g/></defs><g fill="#ffffff" fill-opacity="0.4"><g transform="translate(4.783587, 21.370451)"><g><path d="M 6.6875 0 C 6.914062 0 6.996094 -0.140625 6.898438 -0.320312 L 4.367188 -5.976562 L 6.746094 -10.859375 C 6.84375 -11.054688 6.757812 -11.195312 6.550781 -11.195312 L 5.078125 -11.195312 C 4.925781 -11.195312 4.828125 -11.125 4.757812 -10.984375 L 2.601562 -6.578125 L 2.601562 -10.914062 C 2.601562 -11.097656 2.503906 -11.195312 2.324219 -11.195312 L 0.980469 -11.195312 C 0.796875 -11.195312 0.699219 -11.097656 0.699219 -10.914062 L 0.699219 -0.28125 C 0.699219 -0.0976562 0.796875 0 0.980469 0 L 2.324219 0 C 2.503906 0 2.601562 -0.0976562 2.601562 -0.28125 L 2.601562 -3.371094 L 3.121094 -4.367188 L 4.882812 -0.210938 C 4.941406 -0.0703125 5.039062 0 5.207031 0 Z M 6.6875 0 "/></g></g></g><g fill="#ffffff" fill-opacity="0.4"><g transform="translate(15.026731, 21.370451)"><g><path d="M 7.445312 0 C 7.613281 0 7.667969 -0.0820312 7.640625 -0.238281 L 5.316406 -11 C 5.289062 -11.140625 5.207031 -11.195312 5.078125 -11.195312 L 3.132812 -11.195312 C 3.007812 -11.195312 2.925781 -11.140625 2.898438 -11 L 0.574219 -0.238281 C 0.53125 -0.0820312 0.601562 0 0.753906 0 L 2.253906 0 C 2.378906 0 2.449219 -0.0703125 2.476562 -0.195312 L 2.855469 -2.238281 L 5.347656 -2.238281 L 5.738281 -0.195312 C 5.765625 -0.0703125 5.835938 0 5.960938 0 Z M 4.996094 -3.863281 L 3.203125 -3.863281 L 4.101562 -8.746094 Z M 4.996094 -3.863281 "/></g></g></g><g fill="#ffffff" fill-opacity="0.4"><g transform="translate(25.969409, 21.370451)"><g><path d="M 4.730469 -11.195312 C 4.574219 -11.195312 4.449219 -11.070312 4.449219 -10.914062 L 4.449219 -2.40625 C 4.449219 -2.027344 4.253906 -1.847656 3.890625 -1.847656 L 3.164062 -1.847656 C 2.796875 -1.847656 2.601562 -2.027344 2.601562 -2.40625 L 2.601562 -10.914062 C 2.601562 -11.070312 2.476562 -11.195312 2.324219 -11.195312 L 0.980469 -11.195312 C 0.824219 -11.195312 0.699219 -11.070312 0.699219 -10.914062 L 0.699219 -2.015625 C 0.699219 -0.699219 1.398438 0 2.714844 0 L 4.28125 0 C 5.597656 0 6.296875 -0.699219 6.296875 -2.015625 L 6.296875 -10.914062 C 6.296875 -11.070312 6.171875 -11.195312 6.015625 -11.195312 Z M 4.730469 -11.195312 "/></g></g></g><g fill="#ffffff" fill-opacity="0.4"><g transform="translate(35.708882, 21.370451)"><g><path d="M 2.714844 -11.195312 C 1.414062 -11.195312 0.699219 -10.496094 0.699219 -9.179688 L 0.699219 -5.878906 C 0.699219 -5.613281 0.824219 -5.445312 1.078125 -5.359375 L 4.394531 -4.269531 L 4.394531 -2.40625 C 4.394531 -2.027344 4.199219 -1.847656 3.835938 -1.847656 L 3.164062 -1.847656 C 2.8125 -1.847656 2.601562 -2.027344 2.601562 -2.40625 L 2.601562 -3.484375 C 2.601562 -3.636719 2.53125 -3.707031 2.378906 -3.707031 L 0.921875 -3.707031 C 0.785156 -3.707031 0.699219 -3.636719 0.699219 -3.484375 L 0.699219 -2.015625 C 0.699219 -0.699219 1.414062 0 2.714844 0 L 4.28125 0 C 5.597656 0 6.296875 -0.699219 6.296875 -2.015625 L 6.296875 -5.246094 C 6.296875 -5.511719 6.171875 -5.667969 5.933594 -5.765625 L 2.601562 -6.855469 L 2.601562 -8.789062 C 2.601562 -9.152344 2.8125 -9.347656 3.164062 -9.347656 L 3.835938 -9.347656 C 4.210938 -9.347656 4.394531 -9.152344 4.394531 -8.789062 L 4.394531 -7.695312 C 4.394531 -7.558594 4.476562 -7.472656 4.617188 -7.472656 L 6.074219 -7.472656 C 6.226562 -7.472656 6.296875 -7.558594 6.296875 -7.695312 L 6.296875 -9.179688 C 6.296875 -10.496094 5.597656 -11.195312 4.28125 -11.195312 Z M 2.714844 -11.195312 "/></g></g></g><g fill="#ffffff" fill-opacity="0.4"><g transform="translate(45.448357, 21.370451)"><g><path d="M 4.394531 -6.519531 L 2.601562 -6.519531 L 2.601562 -10.972656 C 2.601562 -11.109375 2.519531 -11.195312 2.378906 -11.195312 L 0.9375 -11.195312 C 0.769531 -11.195312 0.699219 -11.109375 0.699219 -10.972656 L 0.699219 -0.222656 C 0.699219 -0.0820312 0.769531 0 0.9375 0 L 2.378906 0 C 2.519531 0 2.601562 -0.0820312 2.601562 -0.222656 L 2.601562 -4.675781 L 4.394531 -4.675781 L 4.394531 -0.222656 C 4.394531 -0.0820312 4.476562 0 4.617188 0 L 6.058594 0 C 6.226562 0 6.296875 -0.0820312 6.296875 -0.222656 L 6.296875 -10.972656 C 6.296875 -11.109375 6.226562 -11.195312 6.058594 -11.195312 L 4.617188 -11.195312 C 4.476562 -11.195312 4.394531 -11.109375 4.394531 -10.972656 Z M 4.394531 -6.519531 "/></g></g></g><g fill="#ffffff" fill-opacity="0.4"><g transform="translate(55.187831, 21.370451)"><g><path d="M 7.445312 0 C 7.613281 0 7.667969 -0.0820312 7.640625 -0.238281 L 5.316406 -11 C 5.289062 -11.140625 5.207031 -11.195312 5.078125 -11.195312 L 3.132812 -11.195312 C 3.007812 -11.195312 2.925781 -11.140625 2.898438 -11 L 0.574219 -0.238281 C 0.53125 -0.0820312 0.601562 0 0.753906 0 L 2.253906 0 C 2.378906 0 2.449219 -0.0703125 2.476562 -0.195312 L 2.855469 -2.238281 L 5.347656 -2.238281 L 5.738281 -0.195312 C 5.765625 -0.0703125 5.835938 0 5.960938 0 Z M 4.996094 -3.863281 L 3.203125 -3.863281 L 4.101562 -8.746094 Z M 4.996094 -3.863281 "/></g></g></g><g fill="#ffffff" fill-opacity="0.4"><g transform="translate(66.130507, 21.370451)"><g><path d="M 2.601562 -1.847656 L 5.933594 -1.847656 C 6.085938 -1.847656 6.15625 -1.761719 6.15625 -1.625 L 6.15625 -0.222656 C 6.15625 -0.0703125 6.085938 0 5.933594 0 L 0.921875 0 C 0.785156 0 0.699219 -0.0703125 0.699219 -0.222656 L 0.699219 -10.972656 C 0.699219 -11.109375 0.785156 -11.195312 0.921875 -11.195312 L 2.378906 -11.195312 C 2.53125 -11.195312 2.601562 -11.109375 2.601562 -10.972656 Z M 2.601562 -1.847656 "/></g></g></g><g fill="#ffffff" fill-opacity="0.4"><g transform="translate(75.730074, 21.370451)"><g/></g></g><g fill="#ffffff" fill-opacity="0.4"><g transform="translate(81.971849, 21.370451)"><g><path d="M 6.6875 0 C 6.914062 0 6.996094 -0.140625 6.898438 -0.320312 L 4.367188 -5.976562 L 6.746094 -10.859375 C 6.84375 -11.054688 6.757812 -11.195312 6.550781 -11.195312 L 5.078125 -11.195312 C 4.925781 -11.195312 4.828125 -11.125 4.757812 -10.984375 L 2.601562 -6.578125 L 2.601562 -10.914062 C 2.601562 -11.097656 2.503906 -11.195312 2.324219 -11.195312 L 0.980469 -11.195312 C 0.796875 -11.195312 0.699219 -11.097656 0.699219 -10.914062 L 0.699219 -0.28125 C 0.699219 -0.0976562 0.796875 0 0.980469 0 L 2.324219 0 C 2.503906 0 2.601562 -0.0976562 2.601562 -0.28125 L 2.601562 -3.371094 L 3.121094 -4.367188 L 4.882812 -0.210938 C 4.941406 -0.0703125 5.039062 0 5.207031 0 Z M 6.6875 0 "/></g></g></g><g fill="#ffffff" fill-opacity="0.4"><g transform="translate(92.214991, 21.370451)"><g><path d="M 4.730469 -11.195312 C 4.574219 -11.195312 4.449219 -11.070312 4.449219 -10.914062 L 4.449219 -2.40625 C 4.449219 -2.027344 4.253906 -1.847656 3.890625 -1.847656 L 3.164062 -1.847656 C 2.796875 -1.847656 2.601562 -2.027344 2.601562 -2.40625 L 2.601562 -10.914062 C 2.601562 -11.070312 2.476562 -11.195312 2.324219 -11.195312 L 0.980469 -11.195312 C 0.824219 -11.195312 0.699219 -11.070312 0.699219 -10.914062 L 0.699219 -2.015625 C 0.699219 -0.699219 1.398438 0 2.714844 0 L 4.28125 0 C 5.597656 0 6.296875 -0.699219 6.296875 -2.015625 L 6.296875 -10.914062 C 6.296875 -11.070312 6.171875 -11.195312 6.015625 -11.195312 Z M 4.730469 -11.195312 "/></g></g></g><g fill="#ffffff" fill-opacity="0.4"><g transform="translate(101.954463, 21.370451)"><g><path d="M 6.550781 -11.195312 C 6.382812 -11.195312 6.285156 -11.109375 6.242188 -10.941406 L 4.6875 -3.972656 L 3.132812 -10.941406 C 3.09375 -11.109375 2.996094 -11.195312 2.828125 -11.195312 L 0.980469 -11.195312 C 0.796875 -11.195312 0.699219 -11.097656 0.699219 -10.914062 L 0.699219 -0.28125 C 0.699219 -0.0976562 0.796875 0 0.980469 0 L 2.265625 0 C 2.449219 0 2.546875 -0.0976562 2.546875 -0.28125 L 2.546875 -6.578125 L 2.644531 -6.578125 L 4.03125 -0.25 C 4.070312 -0.0820312 4.171875 0 4.339844 0 L 5.023438 0 C 5.191406 0 5.289062 -0.0820312 5.332031 -0.25 L 6.71875 -6.578125 L 6.816406 -6.578125 L 6.816406 -0.28125 C 6.816406 -0.0976562 6.914062 0 7.09375 0 L 8.394531 0 C 8.578125 0 8.675781 -0.0976562 8.675781 -0.28125 L 8.675781 -10.914062 C 8.675781 -11.097656 8.578125 -11.195312 8.394531 -11.195312 Z M 6.550781 -11.195312 "/></g></g></g><g fill="#ffffff" fill-opacity="0.4"><g transform="translate(114.07237, 21.370451)"><g><path d="M 7.445312 0 C 7.613281 0 7.667969 -0.0820312 7.640625 -0.238281 L 5.316406 -11 C 5.289062 -11.140625 5.207031 -11.195312 5.078125 -11.195312 L 3.132812 -11.195312 C 3.007812 -11.195312 2.925781 -11.140625 2.898438 -11 L 0.574219 -0.238281 C 0.53125 -0.0820312 0.601562 0 0.753906 0 L 2.253906 0 C 2.378906 0 2.449219 -0.0703125 2.476562 -0.195312 L 2.855469 -2.238281 L 5.347656 -2.238281 L 5.738281 -0.195312 C 5.765625 -0.0703125 5.835938 0 5.960938 0 Z M 4.996094 -3.863281 L 3.203125 -3.863281 L 4.101562 -8.746094 Z M 4.996094 -3.863281 "/></g></g></g><g fill="#ffffff" fill-opacity="0.4"><g transform="translate(125.015047, 21.370451)"><g><path d="M 6.453125 -9.179688 C 6.453125 -10.496094 5.75 -11.195312 4.4375 -11.195312 L 0.921875 -11.195312 C 0.785156 -11.195312 0.699219 -11.109375 0.699219 -10.972656 L 0.699219 -0.222656 C 0.699219 -0.0820312 0.785156 0 0.921875 0 L 2.378906 0 C 2.519531 0 2.601562 -0.0820312 2.601562 -0.222656 L 2.601562 -3.75 L 3.570312 -3.75 L 4.507812 -0.195312 C 4.535156 -0.0703125 4.605469 0 4.742188 0 L 6.199219 0 C 6.351562 0 6.4375 -0.0820312 6.394531 -0.25 L 5.429688 -3.917969 C 6.101562 -4.210938 6.453125 -4.828125 6.453125 -5.765625 Z M 2.601562 -5.597656 L 2.601562 -9.347656 L 3.988281 -9.347656 C 4.351562 -9.347656 4.546875 -9.152344 4.546875 -8.789062 L 4.546875 -6.15625 C 4.546875 -5.792969 4.351562 -5.597656 3.988281 -5.597656 Z M 2.601562 -5.597656 "/></g></g></g><g fill="#ffffff" fill-opacity="0.4"><g transform="translate(134.908416, 21.370451)"><g/></g></g><g fill="#ffffff" fill-opacity="0.4"><g transform="translate(141.150191, 21.370451)"><g><path d="M 6.3125 -9.179688 C 6.3125 -10.496094 5.597656 -11.195312 4.28125 -11.195312 L 0.921875 -11.195312 C 0.785156 -11.195312 0.699219 -11.125 0.699219 -10.972656 L 0.699219 -0.222656 C 0.699219 -0.0820312 0.785156 0 0.921875 0 L 4.28125 0 C 5.597656 0 6.3125 -0.699219 6.3125 -2.015625 L 6.3125 -4.589844 C 6.3125 -5.109375 5.933594 -5.5 5.429688 -5.582031 L 5.429688 -5.613281 C 5.933594 -5.695312 6.3125 -6.085938 6.3125 -6.605469 Z M 4.449219 -7.066406 C 4.449219 -6.71875 4.253906 -6.519531 3.890625 -6.519531 L 2.617188 -6.519531 L 2.617188 -9.347656 L 3.890625 -9.347656 C 4.269531 -9.347656 4.449219 -9.152344 4.449219 -8.789062 Z M 4.449219 -2.40625 C 4.449219 -2.027344 4.253906 -1.847656 3.890625 -1.847656 L 2.617188 -1.847656 L 2.617188 -4.675781 L 3.890625 -4.675781 C 4.269531 -4.675781 4.449219 -4.476562 4.449219 -4.113281 Z M 4.449219 -2.40625 "/></g></g></g><g fill="#ffffff" fill-opacity="0.4"><g transform="translate(150.903655, 21.370451)"><g><path d="M 4.394531 -6.519531 L 2.601562 -6.519531 L 2.601562 -10.972656 C 2.601562 -11.109375 2.519531 -11.195312 2.378906 -11.195312 L 0.9375 -11.195312 C 0.769531 -11.195312 0.699219 -11.109375 0.699219 -10.972656 L 0.699219 -0.222656 C 0.699219 -0.0820312 0.769531 0 0.9375 0 L 2.378906 0 C 2.519531 0 2.601562 -0.0820312 2.601562 -0.222656 L 2.601562 -4.675781 L 4.394531 -4.675781 L 4.394531 -0.222656 C 4.394531 -0.0820312 4.476562 0 4.617188 0 L 6.058594 0 C 6.226562 0 6.296875 -0.0820312 6.296875 -0.222656 L 6.296875 -10.972656 C 6.296875 -11.109375 6.226562 -11.195312 6.058594 -11.195312 L 4.617188 -11.195312 C 4.476562 -11.195312 4.394531 -11.109375 4.394531 -10.972656 Z M 4.394531 -6.519531 "/></g></g></g><g fill="#ffffff" fill-opacity="0.4"><g transform="translate(160.643126, 21.370451)"><g><path d="M 7.445312 0 C 7.613281 0 7.667969 -0.0820312 7.640625 -0.238281 L 5.316406 -11 C 5.289062 -11.140625 5.207031 -11.195312 5.078125 -11.195312 L 3.132812 -11.195312 C 3.007812 -11.195312 2.925781 -11.140625 2.898438 -11 L 0.574219 -0.238281 C 0.53125 -0.0820312 0.601562 0 0.753906 0 L 2.253906 0 C 2.378906 0 2.449219 -0.0703125 2.476562 -0.195312 L 2.855469 -2.238281 L 5.347656 -2.238281 L 5.738281 -0.195312 C 5.765625 -0.0703125 5.835938 0 5.960938 0 Z M 4.996094 -3.863281 L 3.203125 -3.863281 L 4.101562 -8.746094 Z M 4.996094 -3.863281 "/></g></g></g><g fill="#ffffff" fill-opacity="0.4"><g transform="translate(171.585803, 21.370451)"><g><path d="M 0.644531 -11.195312 C 0.503906 -11.195312 0.417969 -11.109375 0.417969 -10.972656 L 0.417969 -9.570312 C 0.417969 -9.433594 0.503906 -9.347656 0.644531 -9.347656 L 2.265625 -9.347656 L 2.265625 -0.222656 C 2.265625 -0.0703125 2.351562 0 2.492188 0 L 3.945312 0 C 4.101562 0 4.171875 -0.0703125 4.171875 -0.222656 L 4.171875 -9.347656 L 5.792969 -9.347656 C 5.949219 -9.347656 6.015625 -9.433594 6.015625 -9.570312 L 6.015625 -10.972656 C 6.015625 -11.109375 5.949219 -11.195312 5.792969 -11.195312 Z M 0.644531 -11.195312 "/></g></g></g><g fill="#ffffff" fill-opacity="0.4"><g transform="translate(180.765644, 21.370451)"><g><path d="M 0.644531 -11.195312 C 0.503906 -11.195312 0.417969 -11.109375 0.417969 -10.972656 L 0.417969 -9.570312 C 0.417969 -9.433594 0.503906 -9.347656 0.644531 -9.347656 L 2.265625 -9.347656 L 2.265625 -0.222656 C 2.265625 -0.0703125 2.351562 0 2.492188 0 L 3.945312 0 C 4.101562 0 4.171875 -0.0703125 4.171875 -0.222656 L 4.171875 -9.347656 L 5.792969 -9.347656 C 5.949219 -9.347656 6.015625 -9.433594 6.015625 -9.570312 L 6.015625 -10.972656 C 6.015625 -11.109375 5.949219 -11.195312 5.792969 -11.195312 Z M 0.644531 -11.195312 "/></g></g></g><g fill="#ffffff" fill-opacity="0.4"><g transform="translate(189.945486, 21.370451)"><g><path d="M 7.445312 0 C 7.613281 0 7.667969 -0.0820312 7.640625 -0.238281 L 5.316406 -11 C 5.289062 -11.140625 5.207031 -11.195312 5.078125 -11.195312 L 3.132812 -11.195312 C 3.007812 -11.195312 2.925781 -11.140625 2.898438 -11 L 0.574219 -0.238281 C 0.53125 -0.0820312 0.601562 0 0.753906 0 L 2.253906 0 C 2.378906 0 2.449219 -0.0703125 2.476562 -0.195312 L 2.855469 -2.238281 L 5.347656 -2.238281 L 5.738281 -0.195312 C 5.765625 -0.0703125 5.835938 0 5.960938 0 Z M 4.996094 -3.863281 L 3.203125 -3.863281 L 4.101562 -8.746094 Z M 4.996094 -3.863281 "/></g></g></g><g fill="#ffffff" fill-opacity="0.4"><g transform="translate(200.888174, 21.370451)"><g><path d="M 6.453125 -9.179688 C 6.453125 -10.496094 5.75 -11.195312 4.4375 -11.195312 L 0.921875 -11.195312 C 0.785156 -11.195312 0.699219 -11.109375 0.699219 -10.972656 L 0.699219 -0.222656 C 0.699219 -0.0820312 0.785156 0 0.921875 0 L 2.378906 0 C 2.519531 0 2.601562 -0.0820312 2.601562 -0.222656 L 2.601562 -3.75 L 3.570312 -3.75 L 4.507812 -0.195312 C 4.535156 -0.0703125 4.605469 0 4.742188 0 L 6.199219 0 C 6.351562 0 6.4375 -0.0820312 6.394531 -0.25 L 5.429688 -3.917969 C 6.101562 -4.210938 6.453125 -4.828125 6.453125 -5.765625 Z M 2.601562 -5.597656 L 2.601562 -9.347656 L 3.988281 -9.347656 C 4.351562 -9.347656 4.546875 -9.152344 4.546875 -8.789062 L 4.546875 -6.15625 C 4.546875 -5.792969 4.351562 -5.597656 3.988281 -5.597656 Z M 2.601562 -5.597656 "/></g></g></g><g fill="#ffffff" fill-opacity="0.4"><g transform="translate(210.781542, 21.370451)"><g><path d="M 7.445312 0 C 7.613281 0 7.667969 -0.0820312 7.640625 -0.238281 L 5.316406 -11 C 5.289062 -11.140625 5.207031 -11.195312 5.078125 -11.195312 L 3.132812 -11.195312 C 3.007812 -11.195312 2.925781 -11.140625 2.898438 -11 L 0.574219 -0.238281 C 0.53125 -0.0820312 0.601562 0 0.753906 0 L 2.253906 0 C 2.378906 0 2.449219 -0.0703125 2.476562 -0.195312 L 2.855469 -2.238281 L 5.347656 -2.238281 L 5.738281 -0.195312 C 5.765625 -0.0703125 5.835938 0 5.960938 0 Z M 4.996094 -3.863281 L 3.203125 -3.863281 L 4.101562 -8.746094 Z M 4.996094 -3.863281 "/></g></g></g><g fill="#ffffff" fill-opacity="0.4"><g transform="translate(221.72423, 21.370451)"><g><path d="M 0.921875 -11.195312 C 0.769531 -11.195312 0.699219 -11.109375 0.699219 -10.972656 L 0.699219 -0.222656 C 0.699219 -0.0820312 0.769531 0 0.921875 0 L 2.378906 0 C 2.519531 0 2.601562 -0.0820312 2.601562 -0.222656 L 2.601562 -10.972656 C 2.601562 -11.109375 2.519531 -11.195312 2.378906 -11.195312 Z M 0.921875 -11.195312 "/></g></g></g><g fill="#ffffff" fill-opacity="1"><g transform="translate(4.12669, 20.875444)"><g><path d="M 6.6875 0 C 6.914062 0 6.996094 -0.140625 6.898438 -0.320312 L 4.367188 -5.976562 L 6.746094 -10.859375 C 6.84375 -11.054688 6.757812 -11.195312 6.550781 -11.195312 L 5.078125 -11.195312 C 4.925781 -11.195312 4.828125 -11.125 4.757812 -10.984375 L 2.601562 -6.578125 L 2.601562 -10.914062 C 2.601562 -11.097656 2.503906 -11.195312 2.324219 -11.195312 L 0.980469 -11.195312 C 0.796875 -11.195312 0.699219 -11.097656 0.699219 -10.914062 L 0.699219 -0.28125 C 0.699219 -0.0976562 0.796875 0 0.980469 0 L 2.324219 0 C 2.503906 0 2.601562 -0.0976562 2.601562 -0.28125 L 2.601562 -3.371094 L 3.121094 -4.367188 L 4.882812 -0.210938 C 4.941406 -0.0703125 5.039062 0 5.207031 0 Z M 6.6875 0 "/></g></g></g><g fill="#ffffff" fill-opacity="1"><g transform="translate(14.369834, 20.875444)"><g><path d="M 7.445312 0 C 7.613281 0 7.667969 -0.0820312 7.640625 -0.238281 L 5.316406 -11 C 5.289062 -11.140625 5.207031 -11.195312 5.078125 -11.195312 L 3.132812 -11.195312 C 3.007812 -11.195312 2.925781 -11.140625 2.898438 -11 L 0.574219 -0.238281 C 0.53125 -0.0820312 0.601562 0 0.753906 0 L 2.253906 0 C 2.378906 0 2.449219 -0.0703125 2.476562 -0.195312 L 2.855469 -2.238281 L 5.347656 -2.238281 L 5.738281 -0.195312 C 5.765625 -0.0703125 5.835938 0 5.960938 0 Z M 4.996094 -3.863281 L 3.203125 -3.863281 L 4.101562 -8.746094 Z M 4.996094 -3.863281 "/></g></g></g><g fill="#ffffff" fill-opacity="1"><g transform="translate(25.312513, 20.875444)"><g><path d="M 4.730469 -11.195312 C 4.574219 -11.195312 4.449219 -11.070312 4.449219 -10.914062 L 4.449219 -2.40625 C 4.449219 -2.027344 4.253906 -1.847656 3.890625 -1.847656 L 3.164062 -1.847656 C 2.796875 -1.847656 2.601562 -2.027344 2.601562 -2.40625 L 2.601562 -10.914062 C 2.601562 -11.070312 2.476562 -11.195312 2.324219 -11.195312 L 0.980469 -11.195312 C 0.824219 -11.195312 0.699219 -11.070312 0.699219 -10.914062 L 0.699219 -2.015625 C 0.699219 -0.699219 1.398438 0 2.714844 0 L 4.28125 0 C 5.597656 0 6.296875 -0.699219 6.296875 -2.015625 L 6.296875 -10.914062 C 6.296875 -11.070312 6.171875 -11.195312 6.015625 -11.195312 Z M 4.730469 -11.195312 "/></g></g></g><g fill="#ffffff" fill-opacity="1"><g transform="translate(35.051986, 20.875444)"><g><path d="M 2.714844 -11.195312 C 1.414062 -11.195312 0.699219 -10.496094 0.699219 -9.179688 L 0.699219 -5.878906 C 0.699219 -5.613281 0.824219 -5.445312 1.078125 -5.359375 L 4.394531 -4.269531 L 4.394531 -2.40625 C 4.394531 -2.027344 4.199219 -1.847656 3.835938 -1.847656 L 3.164062 -1.847656 C 2.8125 -1.847656 2.601562 -2.027344 2.601562 -2.40625 L 2.601562 -3.484375 C 2.601562 -3.636719 2.53125 -3.707031 2.378906 -3.707031 L 0.921875 -3.707031 C 0.785156 -3.707031 0.699219 -3.636719 0.699219 -3.484375 L 0.699219 -2.015625 C 0.699219 -0.699219 1.414062 0 2.714844 0 L 4.28125 0 C 5.597656 0 6.296875 -0.699219 6.296875 -2.015625 L 6.296875 -5.246094 C 6.296875 -5.511719 6.171875 -5.667969 5.933594 -5.765625 L 2.601562 -6.855469 L 2.601562 -8.789062 C 2.601562 -9.152344 2.8125 -9.347656 3.164062 -9.347656 L 3.835938 -9.347656 C 4.210938 -9.347656 4.394531 -9.152344 4.394531 -8.789062 L 4.394531 -7.695312 C 4.394531 -7.558594 4.476562 -7.472656 4.617188 -7.472656 L 6.074219 -7.472656 C 6.226562 -7.472656 6.296875 -7.558594 6.296875 -7.695312 L 6.296875 -9.179688 C 6.296875 -10.496094 5.597656 -11.195312 4.28125 -11.195312 Z M 2.714844 -11.195312 "/></g></g></g><g fill="#ffffff" fill-opacity="1"><g transform="translate(44.79146, 20.875444)"><g><path d="M 4.394531 -6.519531 L 2.601562 -6.519531 L 2.601562 -10.972656 C 2.601562 -11.109375 2.519531 -11.195312 2.378906 -11.195312 L 0.9375 -11.195312 C 0.769531 -11.195312 0.699219 -11.109375 0.699219 -10.972656 L 0.699219 -0.222656 C 0.699219 -0.0820312 0.769531 0 0.9375 0 L 2.378906 0 C 2.519531 0 2.601562 -0.0820312 2.601562 -0.222656 L 2.601562 -4.675781 L 4.394531 -4.675781 L 4.394531 -0.222656 C 4.394531 -0.0820312 4.476562 0 4.617188 0 L 6.058594 0 C 6.226562 0 6.296875 -0.0820312 6.296875 -0.222656 L 6.296875 -10.972656 C 6.296875 -11.109375 6.226562 -11.195312 6.058594 -11.195312 L 4.617188 -11.195312 C 4.476562 -11.195312 4.394531 -11.109375 4.394531 -10.972656 Z M 4.394531 -6.519531 "/></g></g></g><g fill="#ffffff" fill-opacity="1"><g transform="translate(54.530934, 20.875444)"><g><path d="M 7.445312 0 C 7.613281 0 7.667969 -0.0820312 7.640625 -0.238281 L 5.316406 -11 C 5.289062 -11.140625 5.207031 -11.195312 5.078125 -11.195312 L 3.132812 -11.195312 C 3.007812 -11.195312 2.925781 -11.140625 2.898438 -11 L 0.574219 -0.238281 C 0.53125 -0.0820312 0.601562 0 0.753906 0 L 2.253906 0 C 2.378906 0 2.449219 -0.0703125 2.476562 -0.195312 L 2.855469 -2.238281 L 5.347656 -2.238281 L 5.738281 -0.195312 C 5.765625 -0.0703125 5.835938 0 5.960938 0 Z M 4.996094 -3.863281 L 3.203125 -3.863281 L 4.101562 -8.746094 Z M 4.996094 -3.863281 "/></g></g></g><g fill="#ffffff" fill-opacity="1"><g transform="translate(65.473611, 20.875444)"><g><path d="M 2.601562 -1.847656 L 5.933594 -1.847656 C 6.085938 -1.847656 6.15625 -1.761719 6.15625 -1.625 L 6.15625 -0.222656 C 6.15625 -0.0703125 6.085938 0 5.933594 0 L 0.921875 0 C 0.785156 0 0.699219 -0.0703125 0.699219 -0.222656 L 0.699219 -10.972656 C 0.699219 -11.109375 0.785156 -11.195312 0.921875 -11.195312 L 2.378906 -11.195312 C 2.53125 -11.195312 2.601562 -11.109375 2.601562 -10.972656 Z M 2.601562 -1.847656 "/></g></g></g><g fill="#ffffff" fill-opacity="1"><g transform="translate(75.073177, 20.875444)"><g/></g></g><g fill="#ffffff" fill-opacity="1"><g transform="translate(81.314953, 20.875444)"><g><path d="M 6.6875 0 C 6.914062 0 6.996094 -0.140625 6.898438 -0.320312 L 4.367188 -5.976562 L 6.746094 -10.859375 C 6.84375 -11.054688 6.757812 -11.195312 6.550781 -11.195312 L 5.078125 -11.195312 C 4.925781 -11.195312 4.828125 -11.125 4.757812 -10.984375 L 2.601562 -6.578125 L 2.601562 -10.914062 C 2.601562 -11.097656 2.503906 -11.195312 2.324219 -11.195312 L 0.980469 -11.195312 C 0.796875 -11.195312 0.699219 -11.097656 0.699219 -10.914062 L 0.699219 -0.28125 C 0.699219 -0.0976562 0.796875 0 0.980469 0 L 2.324219 0 C 2.503906 0 2.601562 -0.0976562 2.601562 -0.28125 L 2.601562 -3.371094 L 3.121094 -4.367188 L 4.882812 -0.210938 C 4.941406 -0.0703125 5.039062 0 5.207031 0 Z M 6.6875 0 "/></g></g></g><g fill="#ffffff" fill-opacity="1"><g transform="translate(91.558095, 20.875444)"><g><path d="M 4.730469 -11.195312 C 4.574219 -11.195312 4.449219 -11.070312 4.449219 -10.914062 L 4.449219 -2.40625 C 4.449219 -2.027344 4.253906 -1.847656 3.890625 -1.847656 L 3.164062 -1.847656 C 2.796875 -1.847656 2.601562 -2.027344 2.601562 -2.40625 L 2.601562 -10.914062 C 2.601562 -11.070312 2.476562 -11.195312 2.324219 -11.195312 L 0.980469 -11.195312 C 0.824219 -11.195312 0.699219 -11.070312 0.699219 -10.914062 L 0.699219 -2.015625 C 0.699219 -0.699219 1.398438 0 2.714844 0 L 4.28125 0 C 5.597656 0 6.296875 -0.699219 6.296875 -2.015625 L 6.296875 -10.914062 C 6.296875 -11.070312 6.171875 -11.195312 6.015625 -11.195312 Z M 4.730469 -11.195312 "/></g></g></g><g fill="#ffffff" fill-opacity="1"><g transform="translate(101.297566, 20.875444)"><g><path d="M 6.550781 -11.195312 C 6.382812 -11.195312 6.285156 -11.109375 6.242188 -10.941406 L 4.6875 -3.972656 L 3.132812 -10.941406 C 3.09375 -11.109375 2.996094 -11.195312 2.828125 -11.195312 L 0.980469 -11.195312 C 0.796875 -11.195312 0.699219 -11.097656 0.699219 -10.914062 L 0.699219 -0.28125 C 0.699219 -0.0976562 0.796875 0 0.980469 0 L 2.265625 0 C 2.449219 0 2.546875 -0.0976562 2.546875 -0.28125 L 2.546875 -6.578125 L 2.644531 -6.578125 L 4.03125 -0.25 C 4.070312 -0.0820312 4.171875 0 4.339844 0 L 5.023438 0 C 5.191406 0 5.289062 -0.0820312 5.332031 -0.25 L 6.71875 -6.578125 L 6.816406 -6.578125 L 6.816406 -0.28125 C 6.816406 -0.0976562 6.914062 0 7.09375 0 L 8.394531 0 C 8.578125 0 8.675781 -0.0976562 8.675781 -0.28125 L 8.675781 -10.914062 C 8.675781 -11.097656 8.578125 -11.195312 8.394531 -11.195312 Z M 6.550781 -11.195312 "/></g></g></g><g fill="#ffffff" fill-opacity="1"><g transform="translate(113.415473, 20.875444)"><g><path d="M 7.445312 0 C 7.613281 0 7.667969 -0.0820312 7.640625 -0.238281 L 5.316406 -11 C 5.289062 -11.140625 5.207031 -11.195312 5.078125 -11.195312 L 3.132812 -11.195312 C 3.007812 -11.195312 2.925781 -11.140625 2.898438 -11 L 0.574219 -0.238281 C 0.53125 -0.0820312 0.601562 0 0.753906 0 L 2.253906 0 C 2.378906 0 2.449219 -0.0703125 2.476562 -0.195312 L 2.855469 -2.238281 L 5.347656 -2.238281 L 5.738281 -0.195312 C 5.765625 -0.0703125 5.835938 0 5.960938 0 Z M 4.996094 -3.863281 L 3.203125 -3.863281 L 4.101562 -8.746094 Z M 4.996094 -3.863281 "/></g></g></g><g fill="#ffffff" fill-opacity="1"><g transform="translate(124.35815, 20.875444)"><g><path d="M 6.453125 -9.179688 C 6.453125 -10.496094 5.75 -11.195312 4.4375 -11.195312 L 0.921875 -11.195312 C 0.785156 -11.195312 0.699219 -11.109375 0.699219 -10.972656 L 0.699219 -0.222656 C 0.699219 -0.0820312 0.785156 0 0.921875 0 L 2.378906 0 C 2.519531 0 2.601562 -0.0820312 2.601562 -0.222656 L 2.601562 -3.75 L 3.570312 -3.75 L 4.507812 -0.195312 C 4.535156 -0.0703125 4.605469 0 4.742188 0 L 6.199219 0 C 6.351562 0 6.4375 -0.0820312 6.394531 -0.25 L 5.429688 -3.917969 C 6.101562 -4.210938 6.453125 -4.828125 6.453125 -5.765625 Z M 2.601562 -5.597656 L 2.601562 -9.347656 L 3.988281 -9.347656 C 4.351562 -9.347656 4.546875 -9.152344 4.546875 -8.789062 L 4.546875 -6.15625 C 4.546875 -5.792969 4.351562 -5.597656 3.988281 -5.597656 Z M 2.601562 -5.597656 "/></g></g></g><g fill="#ffffff" fill-opacity="1"><g transform="translate(134.251519, 20.875444)"><g/></g></g><g fill="#ffffff" fill-opacity="1"><g transform="translate(140.493294, 20.875444)"><g><path d="M 6.3125 -9.179688 C 6.3125 -10.496094 5.597656 -11.195312 4.28125 -11.195312 L 0.921875 -11.195312 C 0.785156 -11.195312 0.699219 -11.125 0.699219 -10.972656 L 0.699219 -0.222656 C 0.699219 -0.0820312 0.785156 0 0.921875 0 L 4.28125 0 C 5.597656 0 6.3125 -0.699219 6.3125 -2.015625 L 6.3125 -4.589844 C 6.3125 -5.109375 5.933594 -5.5 5.429688 -5.582031 L 5.429688 -5.613281 C 5.933594 -5.695312 6.3125 -6.085938 6.3125 -6.605469 Z M 4.449219 -7.066406 C 4.449219 -6.71875 4.253906 -6.519531 3.890625 -6.519531 L 2.617188 -6.519531 L 2.617188 -9.347656 L 3.890625 -9.347656 C 4.269531 -9.347656 4.449219 -9.152344 4.449219 -8.789062 Z M 4.449219 -2.40625 C 4.449219 -2.027344 4.253906 -1.847656 3.890625 -1.847656 L 2.617188 -1.847656 L 2.617188 -4.675781 L 3.890625 -4.675781 C 4.269531 -4.675781 4.449219 -4.476562 4.449219 -4.113281 Z M 4.449219 -2.40625 "/></g></g></g><g fill="#ffffff" fill-opacity="1"><g transform="translate(150.246758, 20.875444)"><g><path d="M 4.394531 -6.519531 L 2.601562 -6.519531 L 2.601562 -10.972656 C 2.601562 -11.109375 2.519531 -11.195312 2.378906 -11.195312 L 0.9375 -11.195312 C 0.769531 -11.195312 0.699219 -11.109375 0.699219 -10.972656 L 0.699219 -0.222656 C 0.699219 -0.0820312 0.769531 0 0.9375 0 L 2.378906 0 C 2.519531 0 2.601562 -0.0820312 2.601562 -0.222656 L 2.601562 -4.675781 L 4.394531 -4.675781 L 4.394531 -0.222656 C 4.394531 -0.0820312 4.476562 0 4.617188 0 L 6.058594 0 C 6.226562 0 6.296875 -0.0820312 6.296875 -0.222656 L 6.296875 -10.972656 C 6.296875 -11.109375 6.226562 -11.195312 6.058594 -11.195312 L 4.617188 -11.195312 C 4.476562 -11.195312 4.394531 -11.109375 4.394531 -10.972656 Z M 4.394531 -6.519531 "/></g></g></g><g fill="#ffffff" fill-opacity="1"><g transform="translate(159.98623, 20.875444)"><g><path d="M 7.445312 0 C 7.613281 0 7.667969 -0.0820312 7.640625 -0.238281 L 5.316406 -11 C 5.289062 -11.140625 5.207031 -11.195312 5.078125 -11.195312 L 3.132812 -11.195312 C 3.007812 -11.195312 2.925781 -11.140625 2.898438 -11 L 0.574219 -0.238281 C 0.53125 -0.0820312 0.601562 0 0.753906 0 L 2.253906 0 C 2.378906 0 2.449219 -0.0703125 2.476562 -0.195312 L 2.855469 -2.238281 L 5.347656 -2.238281 L 5.738281 -0.195312 C 5.765625 -0.0703125 5.835938 0 5.960938 0 Z M 4.996094 -3.863281 L 3.203125 -3.863281 L 4.101562 -8.746094 Z M 4.996094 -3.863281 "/></g></g></g><g fill="#ffffff" fill-opacity="1"><g transform="translate(170.928906, 20.875444)"><g><path d="M 0.644531 -11.195312 C 0.503906 -11.195312 0.417969 -11.109375 0.417969 -10.972656 L 0.417969 -9.570312 C 0.417969 -9.433594 0.503906 -9.347656 0.644531 -9.347656 L 2.265625 -9.347656 L 2.265625 -0.222656 C 2.265625 -0.0703125 2.351562 0 2.492188 0 L 3.945312 0 C 4.101562 0 4.171875 -0.0703125 4.171875 -0.222656 L 4.171875 -9.347656 L 5.792969 -9.347656 C 5.949219 -9.347656 6.015625 -9.433594 6.015625 -9.570312 L 6.015625 -10.972656 C 6.015625 -11.109375 5.949219 -11.195312 5.792969 -11.195312 Z M 0.644531 -11.195312 "/></g></g></g><g fill="#ffffff" fill-opacity="1"><g transform="translate(180.108747, 20.875444)"><g><path d="M 0.644531 -11.195312 C 0.503906 -11.195312 0.417969 -11.109375 0.417969 -10.972656 L 0.417969 -9.570312 C 0.417969 -9.433594 0.503906 -9.347656 0.644531 -9.347656 L 2.265625 -9.347656 L 2.265625 -0.222656 C 2.265625 -0.0703125 2.351562 0 2.492188 0 L 3.945312 0 C 4.101562 0 4.171875 -0.0703125 4.171875 -0.222656 L 4.171875 -9.347656 L 5.792969 -9.347656 C 5.949219 -9.347656 6.015625 -9.433594 6.015625 -9.570312 L 6.015625 -10.972656 C 6.015625 -11.109375 5.949219 -11.195312 5.792969 -11.195312 Z M 0.644531 -11.195312 "/></g></g></g><g fill="#ffffff" fill-opacity="1"><g transform="translate(189.288589, 20.875444)"><g><path d="M 7.445312 0 C 7.613281 0 7.667969 -0.0820312 7.640625 -0.238281 L 5.316406 -11 C 5.289062 -11.140625 5.207031 -11.195312 5.078125 -11.195312 L 3.132812 -11.195312 C 3.007812 -11.195312 2.925781 -11.140625 2.898438 -11 L 0.574219 -0.238281 C 0.53125 -0.0820312 0.601562 0 0.753906 0 L 2.253906 0 C 2.378906 0 2.449219 -0.0703125 2.476562 -0.195312 L 2.855469 -2.238281 L 5.347656 -2.238281 L 5.738281 -0.195312 C 5.765625 -0.0703125 5.835938 0 5.960938 0 Z M 4.996094 -3.863281 L 3.203125 -3.863281 L 4.101562 -8.746094 Z M 4.996094 -3.863281 "/></g></g></g><g fill="#ffffff" fill-opacity="1"><g transform="translate(200.231277, 20.875444)"><g><path d="M 6.453125 -9.179688 C 6.453125 -10.496094 5.75 -11.195312 4.4375 -11.195312 L 0.921875 -11.195312 C 0.785156 -11.195312 0.699219 -11.109375 0.699219 -10.972656 L 0.699219 -0.222656 C 0.699219 -0.0820312 0.785156 0 0.921875 0 L 2.378906 0 C 2.519531 0 2.601562 -0.0820312 2.601562 -0.222656 L 2.601562 -3.75 L 3.570312 -3.75 L 4.507812 -0.195312 C 4.535156 -0.0703125 4.605469 0 4.742188 0 L 6.199219 0 C 6.351562 0 6.4375 -0.0820312 6.394531 -0.25 L 5.429688 -3.917969 C 6.101562 -4.210938 6.453125 -4.828125 6.453125 -5.765625 Z M 2.601562 -5.597656 L 2.601562 -9.347656 L 3.988281 -9.347656 C 4.351562 -9.347656 4.546875 -9.152344 4.546875 -8.789062 L 4.546875 -6.15625 C 4.546875 -5.792969 4.351562 -5.597656 3.988281 -5.597656 Z M 2.601562 -5.597656 "/></g></g></g><g fill="#ffffff" fill-opacity="1"><g transform="translate(210.124646, 20.875444)"><g><path d="M 7.445312 0 C 7.613281 0 7.667969 -0.0820312 7.640625 -0.238281 L 5.316406 -11 C 5.289062 -11.140625 5.207031 -11.195312 5.078125 -11.195312 L 3.132812 -11.195312 C 3.007812 -11.195312 2.925781 -11.140625 2.898438 -11 L 0.574219 -0.238281 C 0.53125 -0.0820312 0.601562 0 0.753906 0 L 2.253906 0 C 2.378906 0 2.449219 -0.0703125 2.476562 -0.195312 L 2.855469 -2.238281 L 5.347656 -2.238281 L 5.738281 -0.195312 C 5.765625 -0.0703125 5.835938 0 5.960938 0 Z M 4.996094 -3.863281 L 3.203125 -3.863281 L 4.101562 -8.746094 Z M 4.996094 -3.863281 "/></g></g></g><g fill="#ffffff" fill-opacity="1"><g transform="translate(221.067333, 20.875444)"><g><path d="M 0.921875 -11.195312 C 0.769531 -11.195312 0.699219 -11.109375 0.699219 -10.972656 L 0.699219 -0.222656 C 0.699219 -0.0820312 0.769531 0 0.921875 0 L 2.378906 0 C 2.519531 0 2.601562 -0.0820312 2.601562 -0.222656 L 2.601562 -10.972656 C 2.601562 -11.109375 2.519531 -11.195312 2.378906 -11.195312 Z M 0.921875 -11.195312 "/></g></g></g></svg>